<?xml version="1.0" encoding="utf-8"?>
<!-- Generator: Adobe Illustrator 26.2.1, SVG Export Plug-In . SVG Version: 6.00 Build 0)  -->
<svg version="1.1" id="Layer_1" xmlns="http://www.w3.org/2000/svg" xmlns:xlink="http://www.w3.org/1999/xlink" x="0px" y="0px"
	 viewBox="0 0 1000 1000" style="enable-background:new 0 0 1000 1000;" xml:space="preserve">
<g>
	<path d="M108.1,949.3c-0.6,27.1-23,48.5-50.1,48c-27.1-0.6-48.5-23-48-50.1C15.4,692,269.2,528.6,500,528.6
		c236.2,0,484.6,163.4,490,418.6c0.5,27.1-21,49.5-48,50.1c-27.1,0.5-49.5-21-50.1-48C887.7,750.1,685.2,626.7,500,626.7
		C314,626.7,112.1,756.4,108.1,949.3"/>
	<path d="M500,493c108.2,0,196.2-88,196.2-196.2c0-108.1-88-196.2-196.2-196.2c-108.1,0-196.1,88-196.1,196.2S391.8,493,500,493
		 M500,591.1c-162.5,0-294.2-131.7-294.2-294.2C205.8,134.4,337.5,2.7,500,2.7s294.3,131.7,294.3,294.2
		C794.2,459.4,662.5,591.1,500,591.1L500,591.1L500,591.1z"/>
</g>
</svg>
