<?xml version="1.0" encoding="utf-8"?>
<!-- Generator: Adobe Illustrator 26.2.1, SVG Export Plug-In . SVG Version: 6.00 Build 0)  -->
<svg version="1.1" xmlns="http://www.w3.org/2000/svg" xmlns:xlink="http://www.w3.org/1999/xlink" x="0px" y="0px"
	 viewBox="0 0 30 30" style="enable-background:new 0 0 30 30;" xml:space="preserve">
<style type="text/css">
	.st0{fill:none;stroke:#000000;stroke-width:2.5;stroke-miterlimit:10;}
	.st1{fill:none;stroke:#000000;stroke-width:2.5;stroke-linecap:round;stroke-miterlimit:10;}
	.st2{opacity:0.1;}
	.st3{fill:none;stroke:#000000;stroke-miterlimit:10;}
	.st4{fill:none;stroke:#000000;stroke-width:3;stroke-miterlimit:10;}
	.st5{fill:none;stroke:#000000;stroke-width:3;stroke-linecap:round;stroke-miterlimit:10;}
	.st6{display:none;}
</style>
<g id="Layer_1">
	<g id="Layer_2_00000177483239350843435810000007413954845348607166_">
		<g id="Layer_1-2_00000135682189872695015420000001686951361050865343_">
			<path class="st0" d="M7.1,1.3h15.7c0.8,0,1.5,0.7,1.5,1.5v16.7c0,0.8-0.7,1.5-1.5,1.5H7.1c-0.8,0-1.5-0.7-1.5-1.5V2.8
				C5.6,2,6.3,1.3,7.1,1.3z"/>
			<line class="st0" x1="5.6" y1="15.1" x2="24.4" y2="15.1"/>
			<line class="st1" x1="16.1" y1="2" x2="16.1" y2="5.7"/>
			<line class="st1" x1="20.1" y1="2" x2="20.1" y2="7.5"/>
			<path class="st0" d="M12.6,21H17c0.2,0,0.4,0.2,0.4,0.3l0,0v5.8c0,0.9-0.7,1.6-1.6,1.6h-1.5c-0.9,0-1.6-0.7-1.6-1.6V21L12.6,21z"
				/>
		</g>
	</g>
	<g class="st2">
		<path class="st3" d="M110.6,28.4c0,0.8-0.7,1.5-1.5,1.4c-0.8,0-1.5-0.7-1.5-1.5c0.2-7.7,7.9-12.6,15-12.6c7.2,0,14.8,4.9,15,12.6
			c0,0.8-0.6,1.5-1.5,1.5c-0.8,0-1.5-0.6-1.5-1.4c-0.1-6-6.3-9.7-12-9.7C116.9,18.7,110.7,22.6,110.6,28.4"/>
		<path d="M122.6,14.6c3.3,0,6-2.7,6-5.9c0-3.3-2.7-5.9-6-5.9c-3.3,0-6,2.7-6,5.9S119.3,14.6,122.6,14.6 M122.6,17.6c-5,0-9-4-9-8.9
			s4-8.9,9-8.9c5,0,9,4,9,8.9C131.6,13.6,127.6,17.6,122.6,17.6L122.6,17.6L122.6,17.6z"/>
	</g>
	<g>
		<path d="M40.6,28.6c0,0.8-0.7,1.5-1.5,1.4c-0.8,0-1.5-0.7-1.5-1.5c0.2-7.7,7.9-12.6,15-12.6c7.2,0,14.8,4.9,15,12.6
			c0,0.8-0.6,1.5-1.5,1.5c-0.8,0-1.5-0.6-1.5-1.4c-0.1-6-6.3-9.7-12-9.7C46.9,18.9,40.7,22.8,40.6,28.6"/>
		<path d="M52.6,14.8c3.3,0,6-2.7,6-5.9c0-3.3-2.7-5.9-6-5.9c-3.3,0-6,2.7-6,5.9S49.3,14.8,52.6,14.8 M52.6,17.8c-5,0-9-4-9-8.9
			s4-8.9,9-8.9s9,4,9,8.9C61.6,13.8,57.5,17.8,52.6,17.8L52.6,17.8L52.6,17.8z"/>
	</g>
	<circle class="st4" cx="85.4" cy="9.3" r="7.7"/>
	<path class="st5" d="M71.9,28.6c0,0,0.7-11.2,13.2-11.2S99,28.6,99,28.6"/>
	<path class="st1" d="M79.6,57.6c0,0,0.7-11.2,13.2-11.2s13.9,11.2,13.9,11.2"/>
</g>
<g id="Layer_2" class="st6">
</g>
</svg>
