<?xml version="1.0" encoding="utf-8"?>
<!-- Generator: Adobe Illustrator 26.0.3, SVG Export Plug-In . SVG Version: 6.00 Build 0)  -->
<svg version="1.1" id="Слой_1" xmlns="http://www.w3.org/2000/svg" xmlns:xlink="http://www.w3.org/1999/xlink" x="0px" y="0px"
	 viewBox="0 0 48.1 48.1" style="enable-background:new 0 0 48.1 48.1;" xml:space="preserve">
<style type="text/css">
	.st0{fill:#121313;}
</style>
<g id="Double_Chevron_Down">
	<path class="st0" d="M14.3,24.4l9.8-9.5l9.7,9.6c0.6,0.6,1.6,0.6,2.2,0c0.6-0.6,0.6-1.6,0-2.2L25.2,11.6c-0.6-0.6-1.6-0.6-2.2,0
		L12.1,22.3c-0.6,0.6-0.6,1.6,0,2.2C12.8,25,13.7,25,14.3,24.4z"/>
	<path d="M25.2,22.4c-0.6-0.6-1.6-0.6-2.2,0L12.1,33.1c-0.6,0.6-0.6,1.6,0,2.2c0.6,0.6,1.6,0.6,2.2,0l9.8-9.6l9.7,9.6
		c0.6,0.6,1.6,0.6,2.2,0c0.6-0.6,0.6-1.6,0-2.2L25.2,22.4z"/>
</g>
</svg>
