<?xml version="1.0" encoding="UTF-8"?><svg xmlns="http://www.w3.org/2000/svg" viewBox="0 0 21.29 29.94"><defs><style>.f,.g{fill:none;stroke:#000;stroke-miterlimit:10;stroke-width:2.5px;}.g{stroke-linecap:round;}</style></defs><g id="a"/><g id="b"><g id="c"><g id="d"><g id="e"><path class="f" d="M2.78,1.25h15.73c.84,0,1.53,.66,1.53,1.48V19.48c0,.82-.69,1.48-1.53,1.48H2.78c-.84,0-1.53-.66-1.53-1.48V2.73c0-.82,.69-1.48,1.53-1.48Z"/><line class="f" x1="1.25" y1="15.03" x2="20.04" y2="15.03"/><line class="g" x1="11.73" y1="1.95" x2="11.73" y2="5.59"/><line class="g" x1="15.74" y1="1.95" x2="15.74" y2="7.41"/><path class="f" d="M8.26,20.96h4.42c.19,0,.35,.15,.35,.34h0v5.81c0,.87-.73,1.58-1.63,1.58h-1.51c-.9,0-1.63-.71-1.63-1.58v-6.15h0Z"/></g></g></g></g></svg>